<svg width="45" height="45" viewBox="0 0 45 45" fill="none" xmlns="http://www.w3.org/2000/svg">
<path d="M22.4546 44.9999C34.8562 44.9999 44.9091 34.9267 44.9091 22.4999V6.74994C44.9091 4.95973 44.1994 3.24284 42.9361 1.97697C41.6728 0.711097 39.9594 -6.10352e-05 38.1728 -6.10352e-05H23.5773V9.87069C23.5773 12.1229 23.7143 14.4562 24.8932 16.3732C25.7371 17.747 26.8661 18.9229 28.2035 19.8211C29.5409 20.7192 31.0555 21.3186 32.6445 21.5786L33.0745 21.6483C33.2518 21.709 33.4056 21.8238 33.5146 21.9765C33.6236 22.1292 33.6822 22.3122 33.6822 22.4999C33.6822 22.6877 33.6236 22.8707 33.5146 23.0234C33.4056 23.1761 33.2518 23.2908 33.0745 23.3516L32.6445 23.4213C30.3229 23.8013 28.179 24.9024 26.5156 26.5692C24.8523 28.2359 23.7534 30.3841 23.3741 32.7104L23.3045 33.1413C23.2439 33.3189 23.1294 33.4731 22.977 33.5823C22.8246 33.6915 22.6419 33.7502 22.4546 33.7502C22.2673 33.7502 22.0846 33.6915 21.9322 33.5823C21.7798 33.4731 21.6653 33.3189 21.6047 33.1413L21.5351 32.7104C21.2756 31.1183 20.6774 29.6007 19.7811 28.2605C18.8847 26.9204 17.7113 25.7891 16.3402 24.9434C14.4271 23.7622 12.0986 23.6249 9.85086 23.6249H0.0269992C0.614186 35.5286 10.4302 44.9999 22.4546 44.9999Z" fill="white"/>
<path d="M0 21.3751H9.85081C12.0985 21.3751 14.427 21.2378 16.3402 20.0566C17.8357 19.1333 19.0946 17.8718 20.016 16.3733C21.1948 14.4563 21.3318 12.1231 21.3318 9.87082V7.49343e-05H6.73636C4.94977 7.49343e-05 3.23635 0.711234 1.97304 1.9771C0.709722 3.24297 0 4.95986 0 6.75007V21.3751Z" fill="white"/>
</svg>
